<svg width="20" height="29" viewBox="0 0 20 29" fill="none" xmlns="http://www.w3.org/2000/svg">
<path d="M8.86407 5.77046C10.2774 5.77046 11.4232 4.62008 11.4232 3.20103C11.4232 1.78197 10.2774 0.631592 8.86407 0.631592C7.4507 0.631592 6.30493 1.78197 6.30493 3.20103C6.30493 4.62008 7.4507 5.77046 8.86407 5.77046Z" fill="#1EC28B"/>
<path d="M0.526367 10.7914C0.526367 11.8436 0.904982 12.7431 1.44039 13.1074C1.52575 14.194 2.51468 15.1109 3.79047 15.2167L4.36594 15.2643L4.57441 12.9616L5.03897 13.0092L4.82411 15.133C4.90496 15.3557 5.01344 15.5673 5.14698 15.7629L5.13943 17.5304L5.10285 18.402C5.11388 18.3829 5.12666 18.3643 5.13653 18.3439L5.12317 21.6269L2.90258 27.1312C2.85883 27.244 2.83824 27.3644 2.84204 27.4853C2.84583 27.6062 2.87394 27.725 2.92467 27.8348C2.9754 27.9446 3.04773 28.043 3.13732 28.1242C3.22691 28.2054 3.33193 28.2676 3.44612 28.3073V28.3073C3.93332 28.4874 4.48557 28.2533 4.67371 27.7844L6.96457 22.1057C7.01494 21.9796 7.03484 21.8435 7.02264 21.7082L7.78335 17.0708C7.92532 17.0657 8.06677 17.0508 8.20668 17.0261L10.9435 21.1806L9.8907 26.839C9.79895 27.3311 10.1445 27.8059 10.6584 27.8942C11.1723 27.9825 11.6682 27.6507 11.7617 27.1586L12.8308 21.4014C12.8892 21.272 12.9152 21.1302 12.9064 20.9884C12.8976 20.8467 12.8543 20.7092 12.7803 20.588L10.5062 15.2562L10.4668 15.2527C10.6073 14.9169 10.6798 14.5564 10.6799 14.1923V11.7989L12.3366 13.147C12.4475 13.2367 12.5771 13.3004 12.7158 13.3335C12.7976 13.364 12.8832 13.3836 12.9701 13.3916L16.7307 13.7466L18.5222 27.9476L19.0175 28.1057L17.7882 13.8442C18.2922 13.8727 18.7382 13.513 18.7887 13.0273C18.8398 12.5293 18.4566 12.0825 17.9369 12.0331L17.6291 12.004L17.4497 9.92152L16.2435 9.882L16.4979 11.8971L13.3749 11.6019L10.6822 9.41135V8.57753C10.6822 6.99009 9.32627 5.69142 7.66895 5.69142C6.95459 5.68921 6.26171 5.93572 5.7091 6.38869L5.53489 8.10281L5.02155 8.03308L5.19228 6.1429L4.6168 6.09526C3.21442 5.97904 1.97695 6.88549 1.86604 8.10978L1.84804 8.3085C1.10649 8.41948 0.526367 9.48979 0.526367 10.7914ZM4.6441 12.1911L4.95419 8.76289L5.45708 8.85702L5.11853 12.2062L4.6441 12.1911Z" fill="#1EC28B"/>
</svg>
