<svg width="27" height="25" viewBox="0 0 27 25" fill="none" xmlns="http://www.w3.org/2000/svg">
<path d="M25.7023 4.88557L17.9523 1.01057C17.7728 0.920776 17.5749 0.874023 17.3743 0.874023C17.1736 0.874023 16.9757 0.920776 16.7963 1.01057L9.62492 4.59753L2.45229 1.01057C2.25532 0.912145 2.03645 0.865706 1.81648 0.875669C1.59651 0.885631 1.38273 0.951664 1.19546 1.06749C1.00819 1.18333 0.853642 1.34511 0.746492 1.53748C0.639342 1.72985 0.583149 1.94642 0.583252 2.16661V18.9583C0.583252 19.4478 0.859669 19.8947 1.29754 20.1143L9.04754 23.9893C9.227 24.0791 9.4249 24.1259 9.62556 24.1259C9.82623 24.1259 10.0241 24.0791 10.2036 23.9893L17.3749 20.4024L24.5475 23.988C24.744 24.0874 24.9627 24.1345 25.1826 24.1248C25.4025 24.115 25.6162 24.0488 25.803 23.9325C26.1841 23.6961 26.4166 23.2815 26.4166 22.8333V6.04162C26.4166 5.55207 26.1402 5.10516 25.7023 4.88557V4.88557ZM10.9166 6.83987L16.0833 4.25653V18.16L10.9166 20.7434V6.83987ZM3.16659 4.25653L8.33325 6.83987V20.7434L3.16659 18.16V4.25653ZM23.8333 20.7434L18.6666 18.16V4.25653L23.8333 6.83987V20.7434Z" fill="#1EC28B"/>
</svg>
