<svg width="23" height="23" viewBox="0 0 23 23" fill="none" xmlns="http://www.w3.org/2000/svg">
<path d="M21.9836 20.5308L15.136 13.6832C16.1986 12.3095 16.7734 10.6299 16.7734 8.86328C16.7734 6.74863 15.9481 4.76582 14.4558 3.2708C12.9634 1.77578 10.9753 0.953125 8.86328 0.953125C6.75127 0.953125 4.76318 1.77842 3.2708 3.2708C1.77578 4.76318 0.953125 6.74863 0.953125 8.86328C0.953125 10.9753 1.77842 12.9634 3.2708 14.4558C4.76318 15.9508 6.74863 16.7734 8.86328 16.7734C10.6299 16.7734 12.3068 16.1986 13.6806 15.1387L20.5281 21.9836C20.5482 22.0037 20.572 22.0196 20.5983 22.0305C20.6245 22.0414 20.6527 22.047 20.6811 22.047C20.7095 22.047 20.7376 22.0414 20.7638 22.0305C20.7901 22.0196 20.8139 22.0037 20.834 21.9836L21.9836 20.8366C22.0037 20.8165 22.0196 20.7927 22.0305 20.7665C22.0414 20.7402 22.047 20.7121 22.047 20.6837C22.047 20.6553 22.0414 20.6272 22.0305 20.6009C22.0196 20.5747 22.0037 20.5508 21.9836 20.5308ZM13.0398 13.0398C11.9219 14.1552 10.44 14.7695 8.86328 14.7695C7.28652 14.7695 5.80469 14.1552 4.68672 13.0398C3.57139 11.9219 2.95703 10.44 2.95703 8.86328C2.95703 7.28652 3.57139 5.80205 4.68672 4.68672C5.80469 3.57139 7.28652 2.95703 8.86328 2.95703C10.44 2.95703 11.9245 3.56875 13.0398 4.68672C14.1552 5.80469 14.7695 7.28652 14.7695 8.86328C14.7695 10.44 14.1552 11.9245 13.0398 13.0398Z" fill="#1EC28B"/>
</svg>
