<svg width="181" height="59" viewBox="0 0 181 59" fill="none" xmlns="http://www.w3.org/2000/svg">
<path d="M94.752 19.5723V21.8574H87.3301V19.5723H94.752ZM88.1992 13.7812V28H85.2695V13.7812H88.1992ZM96.8418 13.7812V28H93.9219V13.7812H96.8418ZM102.184 17.4336V28H99.3613V17.4336H102.184ZM99.1855 14.6797C99.1855 14.2695 99.3288 13.931 99.6152 13.6641C99.9017 13.3971 100.286 13.2637 100.768 13.2637C101.243 13.2637 101.624 13.3971 101.91 13.6641C102.203 13.931 102.35 14.2695 102.35 14.6797C102.35 15.0898 102.203 15.4284 101.91 15.6953C101.624 15.9622 101.243 16.0957 100.768 16.0957C100.286 16.0957 99.9017 15.9622 99.6152 15.6953C99.3288 15.4284 99.1855 15.0898 99.1855 14.6797ZM107.32 12.9902V28H104.508V12.9902H107.32ZM113.98 17.4336L109.391 22.668L106.93 25.1582L105.904 23.127L107.857 20.6465L110.602 17.4336H113.98ZM111.061 28L107.936 23.1172L109.879 21.418L114.303 28H111.061ZM119.859 28.1953C119.039 28.1953 118.303 28.0651 117.652 27.8047C117.001 27.5378 116.448 27.1699 115.992 26.7012C115.543 26.2324 115.198 25.6888 114.957 25.0703C114.716 24.4453 114.596 23.7812 114.596 23.0781V22.6875C114.596 21.8867 114.71 21.1543 114.938 20.4902C115.165 19.8262 115.491 19.25 115.914 18.7617C116.344 18.2734 116.865 17.8991 117.477 17.6387C118.089 17.3717 118.779 17.2383 119.547 17.2383C120.296 17.2383 120.96 17.362 121.539 17.6094C122.118 17.8568 122.604 18.2083 122.994 18.6641C123.391 19.1198 123.691 19.6667 123.893 20.3047C124.094 20.9362 124.195 21.6393 124.195 22.4141V23.5859H115.797V21.7109H121.432V21.4961C121.432 21.1055 121.36 20.7572 121.217 20.4512C121.08 20.1387 120.872 19.8913 120.592 19.709C120.312 19.5267 119.954 19.4355 119.518 19.4355C119.146 19.4355 118.827 19.5169 118.561 19.6797C118.294 19.8424 118.076 20.0703 117.906 20.3633C117.743 20.6562 117.62 21.0013 117.535 21.3984C117.457 21.7891 117.418 22.2188 117.418 22.6875V23.0781C117.418 23.5013 117.477 23.8919 117.594 24.25C117.717 24.6081 117.89 24.9173 118.111 25.1777C118.339 25.4382 118.613 25.64 118.932 25.7832C119.257 25.9264 119.625 25.998 120.035 25.998C120.543 25.998 121.015 25.9004 121.451 25.7051C121.894 25.5033 122.275 25.2005 122.594 24.7969L123.961 26.2812C123.74 26.6003 123.437 26.9062 123.053 27.1992C122.675 27.4922 122.219 27.7331 121.686 27.9219C121.152 28.1042 120.543 28.1953 119.859 28.1953ZM132.33 13.7812V28H129.41V13.7812H132.33ZM136.705 13.7812V16.0762H125.104V13.7812H136.705ZM140.328 19.7383V28H137.516V17.4336H140.162L140.328 19.7383ZM143.512 17.3652L143.463 19.9727C143.326 19.9531 143.16 19.9368 142.965 19.9238C142.776 19.9043 142.604 19.8945 142.447 19.8945C142.05 19.8945 141.705 19.9466 141.412 20.0508C141.126 20.1484 140.885 20.2949 140.689 20.4902C140.501 20.6855 140.357 20.9232 140.26 21.2031C140.169 21.4831 140.117 21.8021 140.104 22.1602L139.537 21.9844C139.537 21.3008 139.605 20.6725 139.742 20.0996C139.879 19.5202 140.077 19.0156 140.338 18.5859C140.605 18.1562 140.93 17.8242 141.314 17.5898C141.699 17.3555 142.138 17.2383 142.633 17.2383C142.789 17.2383 142.949 17.2513 143.111 17.2773C143.274 17.2969 143.408 17.3262 143.512 17.3652ZM150.211 25.6172V20.9102C150.211 20.5716 150.156 20.2819 150.045 20.041C149.934 19.7936 149.762 19.6016 149.527 19.4648C149.299 19.3281 149.003 19.2598 148.639 19.2598C148.326 19.2598 148.056 19.3151 147.828 19.4258C147.6 19.5299 147.424 19.6829 147.301 19.8848C147.177 20.0801 147.115 20.3112 147.115 20.5781H144.303C144.303 20.1289 144.407 19.7025 144.615 19.2988C144.824 18.8952 145.126 18.5404 145.523 18.2344C145.921 17.9219 146.393 17.6777 146.939 17.502C147.493 17.3262 148.111 17.2383 148.795 17.2383C149.615 17.2383 150.344 17.375 150.982 17.6484C151.62 17.9219 152.122 18.332 152.486 18.8789C152.857 19.4258 153.043 20.1094 153.043 20.9297V25.4512C153.043 26.0306 153.079 26.5059 153.15 26.877C153.222 27.2415 153.326 27.5605 153.463 27.834V28H150.621C150.484 27.7135 150.38 27.3555 150.309 26.9258C150.243 26.4896 150.211 26.0534 150.211 25.6172ZM150.582 21.5645L150.602 23.1562H149.029C148.658 23.1562 148.336 23.1986 148.062 23.2832C147.789 23.3678 147.564 23.4883 147.389 23.6445C147.213 23.7943 147.083 23.9701 146.998 24.1719C146.92 24.3737 146.881 24.5951 146.881 24.8359C146.881 25.0768 146.936 25.2949 147.047 25.4902C147.158 25.679 147.317 25.8288 147.525 25.9395C147.734 26.0436 147.978 26.0957 148.258 26.0957C148.681 26.0957 149.049 26.0111 149.361 25.8418C149.674 25.6725 149.915 25.4642 150.084 25.2168C150.26 24.9694 150.351 24.735 150.357 24.5137L151.1 25.7051C150.995 25.972 150.852 26.2487 150.67 26.5352C150.494 26.8216 150.27 27.0918 149.996 27.3457C149.723 27.5931 149.394 27.7982 149.01 27.9609C148.626 28.1172 148.17 28.1953 147.643 28.1953C146.972 28.1953 146.363 28.0618 145.816 27.7949C145.276 27.5215 144.846 27.1471 144.527 26.6719C144.215 26.1901 144.059 25.6432 144.059 25.0312C144.059 24.4779 144.163 23.9863 144.371 23.5566C144.579 23.127 144.885 22.7656 145.289 22.4727C145.699 22.1732 146.21 21.9486 146.822 21.7988C147.434 21.6426 148.144 21.5645 148.951 21.5645H150.582ZM158.648 25.9492L160.992 17.4336H163.932L160.367 28H158.59L158.648 25.9492ZM157.037 17.4336L159.391 25.959L159.439 28H157.652L154.088 17.4336H157.037ZM169.918 28.1953C169.098 28.1953 168.362 28.0651 167.711 27.8047C167.06 27.5378 166.507 27.1699 166.051 26.7012C165.602 26.2324 165.257 25.6888 165.016 25.0703C164.775 24.4453 164.654 23.7812 164.654 23.0781V22.6875C164.654 21.8867 164.768 21.1543 164.996 20.4902C165.224 19.8262 165.549 19.25 165.973 18.7617C166.402 18.2734 166.923 17.8991 167.535 17.6387C168.147 17.3717 168.837 17.2383 169.605 17.2383C170.354 17.2383 171.018 17.362 171.598 17.6094C172.177 17.8568 172.662 18.2083 173.053 18.6641C173.45 19.1198 173.749 19.6667 173.951 20.3047C174.153 20.9362 174.254 21.6393 174.254 22.4141V23.5859H165.855V21.7109H171.49V21.4961C171.49 21.1055 171.419 20.7572 171.275 20.4512C171.139 20.1387 170.93 19.8913 170.65 19.709C170.37 19.5267 170.012 19.4355 169.576 19.4355C169.205 19.4355 168.886 19.5169 168.619 19.6797C168.352 19.8424 168.134 20.0703 167.965 20.3633C167.802 20.6562 167.678 21.0013 167.594 21.3984C167.516 21.7891 167.477 22.2188 167.477 22.6875V23.0781C167.477 23.5013 167.535 23.8919 167.652 24.25C167.776 24.6081 167.949 24.9173 168.17 25.1777C168.398 25.4382 168.671 25.64 168.99 25.7832C169.316 25.9264 169.684 25.998 170.094 25.998C170.602 25.998 171.074 25.9004 171.51 25.7051C171.952 25.5033 172.333 25.2005 172.652 24.7969L174.02 26.2812C173.798 26.6003 173.495 26.9062 173.111 27.1992C172.734 27.4922 172.278 27.7331 171.744 27.9219C171.21 28.1042 170.602 28.1953 169.918 28.1953ZM178.824 13V28H176.002V13H178.824Z" fill="#1EC28B"/>
<path d="M36.5683 0C34.0097 0 31.5471 2.06654 30.1918 4.52651C28.037 8.44099 25.6823 12.7847 23.3156 17.1721C22.529 16.3579 21.4594 15.8731 20.3252 15.8169C18.5982 15.8169 16.9351 17.2118 16.0196 18.873C9.41519 30.8668 0.0283203 48.7423 0.0283203 48.7423H66.5999C66.5999 48.7423 52.7195 22.2828 42.9449 4.54637C41.5896 2.06653 39.1269 0 36.5683 0Z" fill="#1D1D1B"/>
<path d="M87.9842 48.7424C87.9842 48.7424 76.4785 26.8014 68.3829 12.0973C67.2595 10.0625 65.2167 8.3457 63.0978 8.3457C60.979 8.3457 58.9361 10.0705 57.8327 12.0973C56.5934 14.3466 55.2781 16.7628 53.9348 19.2506C61.5986 33.5296 68.8467 47.3396 68.9466 47.5303L69.5783 48.7226H88.0002" fill="#1D1D1B"/>
<g clip-path="url(#clip0_325_516)">
<path d="M36.8409 25.9677C38.2994 25.9677 39.4818 24.7978 39.4818 23.3546C39.4818 21.9114 38.2994 20.7415 36.8409 20.7415C35.3823 20.7415 34.2 21.9114 34.2 23.3546C34.2 24.7978 35.3823 25.9677 36.8409 25.9677Z" fill="white"/>
<path d="M28.2368 31.0739C28.2368 32.1441 28.6275 33.0588 29.18 33.4294C29.2681 34.5344 30.2887 35.4669 31.6052 35.5745L32.1991 35.6229L32.4142 33.281L32.8937 33.3295L32.6719 35.4894C32.7554 35.7158 32.8673 35.931 33.0051 36.1299L32.9973 37.9276L32.9596 38.814C32.971 38.7945 32.9841 38.7756 32.9943 38.7549L32.9805 42.0937L30.689 47.6916C30.6438 47.8063 30.6226 47.9288 30.6265 48.0517C30.6304 48.1746 30.6594 48.2955 30.7118 48.4072C30.7641 48.5188 30.8388 48.6189 30.9312 48.7015C31.0237 48.784 31.1321 48.8474 31.2499 48.8877C31.7527 49.0709 32.3226 48.8327 32.5167 48.3559L34.8808 42.5806C34.9328 42.4524 34.9533 42.3139 34.9407 42.1764L35.7257 37.4601C35.8723 37.4549 36.0182 37.4397 36.1626 37.4146L38.9869 41.6398L37.9005 47.3944C37.8058 47.8949 38.1623 48.3777 38.6927 48.4675C39.223 48.5574 39.7348 48.2199 39.8313 47.7194L40.9345 41.8644C40.9948 41.7328 41.0216 41.5886 41.0125 41.4444C41.0035 41.3002 40.9588 41.1604 40.8824 41.0371L38.5357 35.6146L38.4949 35.6111C38.64 35.2695 38.7148 34.903 38.7148 34.5326V32.0986L40.4245 33.4695C40.5389 33.5608 40.6727 33.6256 40.8158 33.6592C40.9003 33.6903 40.9886 33.7102 41.0783 33.7183L44.9591 34.0794L46.8078 48.5219L47.319 48.6826L46.0504 34.1787C46.5705 34.2076 47.0307 33.8418 47.0829 33.3478C47.1356 32.8414 46.7401 32.3869 46.2038 32.3367L45.8862 32.3072L45.701 30.1893L44.4563 30.1491L44.7188 32.1984L41.496 31.8982L38.7172 29.6704V28.8224C38.7172 27.208 37.318 25.8872 35.6077 25.8872C34.8705 25.885 34.1555 26.1357 33.5852 26.5963L33.4054 28.3396L32.8757 28.2687L33.0519 26.3464L32.458 26.2979C31.0108 26.1797 29.7338 27.1016 29.6193 28.3467L29.6007 28.5488C28.8355 28.6617 28.2368 29.7502 28.2368 31.0739ZM32.4862 32.4975L32.8062 29.0109L33.3251 29.1067L32.9757 32.5128L32.4862 32.4975Z" fill="white"/>
</g>
<defs>
<clipPath id="clip0_325_516">
<rect width="19.0822" height="28.2084" fill="white" transform="translate(28.2368 20.7415)"/>
</clipPath>
</defs>
</svg>
