<svg width="88" height="49" viewBox="0 0 88 49" fill="none" xmlns="http://www.w3.org/2000/svg">
<path d="M36.5683 0C34.0097 0 31.5471 2.06654 30.1918 4.52651C28.037 8.44099 25.6823 12.7847 23.3156 17.1721C22.529 16.3579 21.4594 15.8731 20.3252 15.8169C18.5982 15.8169 16.9351 17.2118 16.0196 18.873C9.41519 30.8668 0.0283203 48.7423 0.0283203 48.7423H66.5999C66.5999 48.7423 52.7195 22.2828 42.9449 4.54637C41.5896 2.06653 39.1269 0 36.5683 0Z" fill="#1D1D1B"/>
<path d="M87.9842 48.7424C87.9842 48.7424 76.4785 26.8014 68.3829 12.0973C67.2595 10.0625 65.2167 8.3457 63.0978 8.3457C60.979 8.3457 58.9361 10.0705 57.8327 12.0973C56.5934 14.3466 55.2781 16.7628 53.9348 19.2506C61.5986 33.5296 68.8467 47.3396 68.9466 47.5303L69.5783 48.7226H88.0002" fill="#1D1D1B"/>
<g clip-path="url(#clip0_325_519)">
<path d="M36.8409 25.9677C38.2994 25.9677 39.4818 24.7978 39.4818 23.3546C39.4818 21.9114 38.2994 20.7415 36.8409 20.7415C35.3823 20.7415 34.2 21.9114 34.2 23.3546C34.2 24.7978 35.3823 25.9677 36.8409 25.9677Z" fill="white"/>
<path d="M28.2368 31.0739C28.2368 32.1441 28.6275 33.0588 29.18 33.4294C29.2681 34.5344 30.2887 35.4669 31.6052 35.5745L32.1991 35.6229L32.4142 33.281L32.8937 33.3295L32.6719 35.4894C32.7554 35.7158 32.8673 35.931 33.0051 36.1299L32.9973 37.9276L32.9596 38.814C32.971 38.7945 32.9841 38.7756 32.9943 38.7549L32.9805 42.0937L30.689 47.6916C30.6438 47.8063 30.6226 47.9288 30.6265 48.0517C30.6304 48.1746 30.6594 48.2955 30.7118 48.4072C30.7641 48.5188 30.8388 48.6189 30.9312 48.7015C31.0237 48.784 31.1321 48.8474 31.2499 48.8877C31.7527 49.0709 32.3226 48.8327 32.5167 48.3559L34.8808 42.5806C34.9328 42.4524 34.9533 42.3139 34.9407 42.1764L35.7257 37.4601C35.8723 37.4549 36.0182 37.4397 36.1626 37.4146L38.9869 41.6398L37.9005 47.3944C37.8058 47.8949 38.1623 48.3777 38.6927 48.4675C39.223 48.5574 39.7348 48.2199 39.8313 47.7194L40.9345 41.8644C40.9948 41.7328 41.0216 41.5886 41.0125 41.4444C41.0035 41.3002 40.9588 41.1604 40.8824 41.0371L38.5357 35.6146L38.4949 35.6111C38.64 35.2695 38.7148 34.903 38.7148 34.5326V32.0986L40.4245 33.4695C40.5389 33.5608 40.6727 33.6256 40.8158 33.6592C40.9003 33.6903 40.9886 33.7102 41.0783 33.7183L44.9591 34.0794L46.8078 48.5219L47.319 48.6826L46.0504 34.1787C46.5705 34.2076 47.0307 33.8418 47.0829 33.3478C47.1356 32.8414 46.7401 32.3869 46.2038 32.3367L45.8862 32.3072L45.701 30.1893L44.4563 30.1491L44.7188 32.1984L41.496 31.8982L38.7172 29.6704V28.8224C38.7172 27.208 37.318 25.8872 35.6077 25.8872C34.8705 25.885 34.1555 26.1357 33.5852 26.5963L33.4054 28.3396L32.8757 28.2687L33.0519 26.3464L32.458 26.2979C31.0108 26.1797 29.7338 27.1016 29.6193 28.3467L29.6007 28.5488C28.8355 28.6617 28.2368 29.7502 28.2368 31.0739ZM32.4862 32.4975L32.8062 29.0109L33.3251 29.1067L32.9757 32.5128L32.4862 32.4975Z" fill="white"/>
</g>
<defs>
<clipPath id="clip0_325_519">
<rect width="19.0822" height="28.2084" fill="white" transform="translate(28.2368 20.7415)"/>
</clipPath>
</defs>
</svg>
