<svg width="35" height="34" viewBox="0 0 24 26" fill="white" xmlns="http://www.w3.org/2000/svg">
<path d="M18 0C15.791 0 14 1.793 14 4C14 6.665 17.5 10.306 17.5 13.969H18.5C18.501 10.306 22 6.77 22 4C22 1.793 20.209 0 18 0ZM18 1.938C18.2709 1.93813 18.5392 1.99162 18.7894 2.09542C19.0396 2.19922 19.267 2.35129 19.4585 2.54295C19.6499 2.73461 19.8018 2.9621 19.9053 3.21245C20.0089 3.46279 20.0621 3.73108 20.062 4.002C20.0619 4.27292 20.0084 4.54116 19.9046 4.7914C19.8008 5.04164 19.6487 5.26899 19.4571 5.46047C19.2654 5.65194 19.0379 5.80379 18.7876 5.90735C18.5372 6.0109 18.2689 6.06413 17.998 6.064C17.4507 6.06374 16.926 5.84608 16.5392 5.45891C16.1524 5.07174 15.9352 4.54677 15.9355 3.9995C15.9358 3.45223 16.1534 2.92747 16.5406 2.54068C16.9278 2.15388 17.4527 1.93673 18 1.937V1.938ZM12 2C5.383 2 0 7.383 0 14C0 20.617 5.383 26 12 26C18.617 26 24 20.617 24 14C24 11.99 23.502 10.104 22.625 8.437C22.492 8.701 22.358 8.952 22.219 9.219C21.956 9.727 21.679 10.24 21.437 10.75C21.687 11.465 21.859 12.221 21.937 13H20.625C20.553 13.335 20.5 13.65 20.5 13.969V15H21.938C21.8023 16.4098 21.3651 17.774 20.656 19H17.72C17.94 18.062 18.067 17.025 18.157 15.969H16.187C16.0938 16.9922 15.9165 18.0059 15.657 19H8.343C8.00504 17.6912 7.80594 16.3505 7.749 15H15.499V13.969C15.4913 13.6425 15.4494 13.3178 15.374 13H7.75C7.80694 11.6495 8.00604 10.3088 8.344 9H13.688C13.3411 8.345 13.0176 7.67792 12.718 7H9.031C9.858 5.113 10.951 4 12 4C12 3.305 12.125 2.652 12.344 2.031C12.229 2.027 12.116 2 12 2ZM7.875 4.906C7.47676 5.57111 7.14195 6.27219 6.875 7H4.875C5.73759 6.1233 6.75464 5.4134 7.875 4.906ZM3.344 9H6.28C5.97755 10.3137 5.79976 11.6529 5.749 13H2.062C2.19723 11.5901 2.63447 10.2258 3.344 9ZM2.062 15H5.75C5.809 16.425 5.993 17.77 6.281 19H3.344C2.63533 17.7738 2.19815 16.4097 2.062 15ZM4.875 21H6.875C7.163 21.776 7.5 22.473 7.875 23.094C6.75464 22.5866 5.73759 21.8767 4.875 21ZM9.031 21H14.969C14.142 22.887 13.049 24 12 24C10.951 24 9.857 22.887 9.031 21ZM17.125 21H19.125C18.2624 21.8767 17.2454 22.5866 16.125 23.094C16.5 22.474 16.837 21.777 17.125 21Z" />
</svg>
