<svg width="35" height="32" viewBox="0 0 27 27" fill="white" xmlns="http://www.w3.org/2000/svg">
<path d="M14.4172 0.958001C14.2971 0.836935 14.1542 0.740842 13.9968 0.675266C13.8394 0.60969 13.6706 0.575928 13.5001 0.575928C13.3296 0.575928 13.1607 0.60969 13.0033 0.675266C12.8459 0.740842 12.7031 0.836935 12.583 0.958001L0.958001 12.583C0.836935 12.7031 0.740842 12.8459 0.675266 13.0033C0.60969 13.1607 0.575928 13.3296 0.575928 13.5001C0.575928 13.6706 0.60969 13.8394 0.675266 13.9968C0.740842 14.1542 0.836935 14.2971 0.958001 14.4172C1.07869 14.5369 1.22183 14.6316 1.3792 14.6959C1.53658 14.7602 1.70509 14.7927 1.87508 14.7918H3.16675V23.8334C3.16675 24.5186 3.43892 25.1756 3.92339 25.6601C4.40786 26.1446 5.06494 26.4168 5.75008 26.4168H21.2501C21.9352 26.4168 22.5923 26.1446 23.0768 25.6601C23.5612 25.1756 23.8334 24.5186 23.8334 23.8334V14.7918H25.1251C25.4677 14.7918 25.7962 14.6557 26.0384 14.4134C26.2807 14.1712 26.4168 13.8427 26.4168 13.5001C26.4177 13.3301 26.3852 13.1616 26.3209 13.0042C26.2566 12.8468 26.1619 12.7037 26.0422 12.583L14.4172 0.958001ZM5.75008 23.8334V11.4463L13.5001 3.69633L21.2501 11.4463V23.8334H5.75008Z" />
</svg>
