<svg width="30" height="30" viewBox="0 0 30 30" fill="none" xmlns="http://www.w3.org/2000/svg">
<path d="M24.2857 15.5441V13.1428H22.4286V15.9286C22.4286 16.1748 22.5265 16.411 22.7007 16.5851L25.2143 19.0987V20.5714H4.78573V19.0987L7.29937 16.5851C7.47353 16.411 7.57139 16.1748 7.57145 15.9286V12.2143C7.56886 10.9094 7.91065 9.62702 8.56231 8.49656C9.21397 7.3661 10.1524 6.42763 11.2828 5.77593C12.4133 5.12423 13.6957 4.78239 15.0005 4.78493C16.3054 4.78748 17.5864 5.13431 18.7143 5.79041V3.71505C17.8304 3.32368 16.8903 3.07423 15.9286 2.97591V1.07141H14.0714V2.97498C11.7821 3.20799 9.66051 4.28159 8.11686 5.98818C6.57321 7.69477 5.71718 9.91312 5.7143 12.2143V15.5441L3.20066 18.0578C3.02651 18.2319 2.92864 18.468 2.92859 18.7143V21.5C2.92859 21.7463 3.02642 21.9824 3.20056 22.1566C3.3747 22.3307 3.61089 22.4286 3.85716 22.4286H10.3572V23.3571C10.3572 24.5885 10.8463 25.7694 11.717 26.6401C12.5877 27.5108 13.7687 28 15 28C16.2314 28 17.4123 27.5108 18.283 26.6401C19.1537 25.7694 19.6429 24.5885 19.6429 23.3571V22.4286H26.1429C26.3891 22.4286 26.6253 22.3307 26.7995 22.1566C26.9736 21.9824 27.0714 21.7463 27.0714 21.5V18.7143C27.0714 18.468 26.9735 18.2319 26.7994 18.0578L24.2857 15.5441ZM17.7857 23.3571C17.7857 24.0959 17.4922 24.8045 16.9698 25.3269C16.4474 25.8493 15.7388 26.1428 15 26.1428C14.2612 26.1428 13.5526 25.8493 13.0302 25.3269C12.5078 24.8045 12.2143 24.0959 12.2143 23.3571V22.4286H17.7857V23.3571Z" fill="black"/>
</svg>
